<?xml version="1.0" encoding="UTF-8" standalone="no"?>
<!-- Created with Inkscape (http://www.inkscape.org/) -->

<svg
   version="1.1"
   id="svg1"
   width="368.32001"
   height="103.04"
   viewBox="0 0 368.32001 103.04"
   xmlns="http://www.w3.org/2000/svg"
   xmlns:svg="http://www.w3.org/2000/svg">
  <defs
     id="defs1" />
  <g
     id="g1">
    <path
       style="fill:#FFFFFF"
       d="M 33.618851,101.32398 C 31.139609,95.540141 29.003878,83.848748 28.583588,73.760001 l -0.186634,-4.48 -1.638769,-1.609381 C 24.937728,65.88281 21.960843,64.27029 13.226433,60.340733 10.204971,58.981397 7.468971,57.657854 7.1464329,57.399528 6.6039809,56.965069 6.6319974,56.941962 7.5200001,57.091423 8.0480002,57.180292 10.568,57.337 13.12,57.439664 L 17.76,57.626325 14.159578,56.413163 10.559156,55.2 11.584919,54.617383 12.610683,54.034766 6.649608,50.934983 C 0.69069876,47.836326 -0.26286509,47.279089 0.84834769,47.54488 1.1737565,47.622714 4.3457834,48.404958 7.8972964,49.283199 11.448809,50.16144 14.532441,50.88 14.749812,50.88 c 0.21737,0 -0.269771,-0.518088 -1.082535,-1.151307 C 11.933019,48.377545 9.8302421,45.749206 9.1160861,44.03999 7.9665945,41.28887 8.1970454,36.666941 9.7233567,31.860557 10.434011,29.622694 10.454747,29.350118 10.04638,27.614588 8.9441128,22.930044 9.8428095,11.687468 11.875909,4.727415 c 1.498472,-5.12982336 1.515399,-5.13347394 3.137816,-0.6767257 2.628139,7.2194477 6.192361,14.2229327 8.750458,17.1941277 l 1.071744,1.244816 1.902037,-1.288355 c 1.04612,-0.708595 2.803063,-1.739354 3.904318,-2.290575 l 2.002282,-1.002219 -1.113904,1.459294 c -0.859387,1.125857 -2.090659,3.985927 -2.090659,4.856301 0,0.05936 0.921946,-0.866781 2.04877,-2.058081 1.831887,-1.936704 4.39482,-3.811072 6.071052,-4.439983 0.575126,-0.215784 0.577322,-0.19071 0.05334,0.608984 -0.59583,0.909352 -1.538592,3.76624 -1.316225,3.988607 0.07595,0.07595 0.760204,-0.287545 1.520573,-0.80776 0.760368,-0.520215 1.865061,-1.193329 2.454873,-1.49581 1.041975,-0.53437 1.085848,-0.530746 1.547095,0.127776 0.709552,1.013028 1.768639,1.932188 2.226331,1.932188 0.808236,0 3.675512,-4.077299 5.844033,-8.310279 2.241132,-4.37472 3.698739,-7.7793217 4.909218,-11.4666935 0.444368,-1.35364064 0.74998,-1.87988719 0.9292,-1.60003338 0.309271,0.48292918 1.596922,4.63213328 2.336549,7.52907508 1.462674,5.7289438 1.967412,15.6778168 0.983885,19.3933128 -0.481199,1.817838 -0.471823,1.936099 0.367872,4.64 0.72494,2.33438 0.86497,3.383897 0.882544,6.614618 0.01967,3.616267 -0.03368,3.951867 -0.915751,5.76 -0.568651,1.16567 -1.781433,2.768622 -3.086896,4.08 -1.182642,1.188 -2.015892,2.16 -1.851666,2.16 0.164226,0 3.191608,-0.725907 6.727517,-1.613126 3.535908,-0.88722 6.571466,-1.565613 6.745685,-1.50754 0.174218,0.05807 -2.112061,1.364082 -5.08062,2.902242 -6.978366,3.615843 -6.528144,3.290837 -5.578199,4.026797 l 0.779183,0.603663 -3.175848,1.017315 c -1.746717,0.559523 -3.249349,1.097245 -3.339183,1.194937 -0.08983,0.09769 2.212666,0.09132 5.116666,-0.01415 l 5.28,-0.191773 -3.36,1.62564 c -1.848,0.894102 -5.617972,2.675617 -8.377716,3.958922 -8.440398,3.924858 -9.862284,5.184567 -9.862284,8.737416 0,5.606678 -1.665062,18.532783 -3.037388,23.579659 -0.849305,3.123413 -2.222904,6.828288 -2.713512,7.318898 -0.195487,0.19549 -0.539891,-0.23759 -0.95025,-1.19492 z M 36.31129,75.149681 c 1.180222,-0.928363 2.728711,-3.106176 2.728711,-3.837693 0,-0.827773 -0.470762,-0.737958 -0.883828,0.168624 -0.438762,0.962977 -2.223671,3.007366 -2.97824,3.411199 -0.479167,0.256442 -0.904644,-0.09202 -2.568646,-2.103696 -1.272423,-1.538282 -2.105413,-2.299987 -2.301164,-2.104236 -0.322253,0.322252 0.269868,1.311252 2.272764,3.796122 1.271129,1.577012 2.334282,1.767869 3.730403,0.66968 z M 34.566895,61.821115 c 0.0067,-1.463332 0.06109,-1.545161 2.16,-3.251137 l 2.153106,-1.750022 -1.44,-0.269832 c -1.518862,-0.28461 -6.965094,-0.09209 -7.314809,0.258575 -0.112855,0.113161 0.226809,0.570516 0.754809,1.016344 3.026433,2.555433 3.04,2.57454 3.04,4.281603 0,0.992598 0.122851,1.535199 0.32,1.413355 0.176,-0.108774 0.323102,-0.873273 0.326894,-1.698886 z M 29.58053,50.60214 c 0.904969,-0.194497 0.753735,-0.3486 -4,-4.075871 C 22.863239,44.395716 19.56,41.767892 18.24,40.68666 15.725644,38.627112 15.091867,38.393848 14.262857,39.222857 12.997182,40.488533 14.103186,42.594664 18.031832,46.4 c 2.409547,2.333918 6.704347,4.440888 9.008169,4.419283 0.88,-0.0083 2.023238,-0.105967 2.540529,-0.217143 z m 16.756906,-1.290743 c 2.55445,-1.281883 3.522799,-1.989436 5.297688,-3.870912 3.333437,-3.533618 4.050248,-5.069399 2.90202,-6.217628 -0.882701,-0.8827 -1.625651,-0.559891 -4.742155,2.060451 -1.676768,1.409818 -4.995556,4.06283 -7.375084,5.895581 -2.379527,1.832751 -4.149449,3.403895 -3.933159,3.49143 0.21629,0.08754 1.367871,0.170524 2.559069,0.184418 1.979299,0.02309 2.435001,-0.109821 5.291621,-1.54334 z M 175.47217,89.262483 c -3.51519,-0.458465 -5.42073,-1.893002 -6.14407,-4.625416 -0.18594,-0.702386 -1.08145,-8.117066 -1.99003,-16.477066 -0.90858,-8.36 -1.77934,-15.336801 -1.93502,-15.504001 -0.1771,-0.190215 -0.43276,-0.155232 -0.68305,0.09347 -0.22,0.218605 -1.98862,8.419405 -3.93027,18.224 l -3.53027,17.826535 -9.18973,0.08491 c -6.70687,0.06197 -9.18973,-0.0135 -9.18973,-0.279324 0,-0.200327 2.30722,-11.182536 5.12716,-24.404908 5.6324,-26.409677 5.76643,-26.871545 8.49537,-29.273651 2.82135,-2.483456 6.34684,-3.55487 11.72172,-3.562295 8.29248,-0.01145 12.0139,2.462536 13.03864,8.66804 0.18593,1.125977 0.98597,8.09523 1.77785,15.48723 0.79189,7.392001 1.52047,13.823971 1.61908,14.293268 0.26214,1.247554 1.03188,1.38487 1.96067,0.349766 0.43579,-0.485668 4.22673,-7.507033 8.42431,-15.603034 4.19758,-8.096 8.32569,-15.656 9.17358,-16.8 1.824,-2.460993 4.54357,-4.403703 7.68144,-5.487193 C 209.83498,31.604606 210.65543,31.52 215.2,31.52 c 4.03775,0 5.51662,0.122493 6.99633,0.5795 2.36936,0.731772 4.17455,1.918943 5.03506,3.311279 1.43688,2.324919 1.36514,2.812792 -4.27406,29.069222 l -5.22331,24.32 -9.18701,0.08491 c -6.59277,0.06093 -9.18701,-0.01583 -9.18701,-0.271825 0,-0.196203 1.8,-8.10409 4,-17.573082 2.2,-9.468992 4,-17.518671 4,-17.888175 0,-1.11309 -0.88095,-0.761378 -1.72371,0.688174 -0.43488,0.748 -4.23791,7.860645 -8.45118,15.805877 -4.21326,7.945231 -8.05315,14.960685 -8.53307,15.589897 -2.42594,3.180572 -7.58419,4.756519 -13.17987,4.026709 z m 164.83297,0.02065 c -2.55971,-0.279645 -4.92329,-1.34006 -6.38513,-2.864677 -0.55789,-0.581848 -4.24389,-7.583631 -8.8,-16.716145 -4.312,-8.643207 -8.0893,-15.871643 -8.394,-16.063191 -0.42,-0.264032 -0.66742,-0.233482 -1.02295,0.126306 -0.27902,0.282362 -1.96634,7.438518 -4.166,17.668577 -2.03338,9.456701 -3.69705,17.268701 -3.69705,17.36 0,0.209803 -14.55857,0.220764 -14.76822,0.01112 -0.31236,-0.312363 10.22084,-48.988764 10.92493,-50.486637 2.28395,-4.858898 7.22507,-7.235614 14.33123,-6.893429 2.4988,0.120326 3.50819,0.325028 5.07917,1.030041 3.51905,1.579256 1.919,-1.261255 20.63507,36.632699 4.7288,9.574288 8.59782,17.503771 8.59782,17.621075 0,0.385142 -2.36526,1.544137 -4.16,2.03843 -2.31839,0.638512 -5.39132,0.839931 -8.17487,0.535832 z M 95.040002,88.652828 c 0,-0.271039 8.409678,-40.021261 8.854518,-41.852828 l 0.17486,-0.72 H 93.954692 c -6.612418,0 -10.11469,-0.112176 -10.11469,-0.323969 0,-0.27211 2.19351,-10.770611 2.72369,-13.036031 L 86.732195,32 H 116.1661 c 16.18865,0 29.4339,0.115946 29.4339,0.257657 0,0.226679 -0.54261,2.803237 -2.42234,11.502343 l -0.50131,2.32 h -10.15291 -10.15291 l -4.09729,19.280001 c -2.25351,10.604 -4.3145,20.252 -4.57999,21.44 l -0.48269,2.16 h -9.08528 c -5.590598,0 -9.085278,-0.118155 -9.085278,-0.307173 z m 126.453338,0.01951 C 221.552,88.514123 228.728,76.701923 237.44,62.423004 c 10.32179,-16.917353 16.34166,-26.476105 17.28001,-27.438351 2.81778,-2.889562 6.32574,-3.804103 13.5565,-3.534243 2.48792,0.09285 5.05792,0.348944 5.71111,0.569094 1.61851,0.545502 3.34037,2.026416 4.10987,3.534763 0.39763,0.779424 2.62973,11.005738 5.91071,27.079761 2.89949,14.20507 5.27181,25.939579 5.27181,26.076686 0,0.137108 -4.03652,0.249287 -8.97005,0.249287 -6.88461,0 -9.00408,-0.093 -9.11645,-0.4 -0.0805,-0.22 -1.52012,-9.112 -3.1991,-19.76 -1.67897,-10.648 -3.11605,-19.540001 -3.1935,-19.760001 -0.0774,-0.22 -0.26571,-0.4 -0.41836,-0.4 -0.15265,0 -5.29507,9.072001 -11.42762,20.160001 l -11.15007,20.16 h -10.2091 c -5.90674,0 -10.16414,-0.121228 -10.10242,-0.287663 z m 26.56,-0.02021 c 0.20072,-0.579348 14.18654,-27.790992 14.25198,-27.729519 0.0956,0.08983 3.29469,26.731929 3.29469,27.438537 0,0.570662 -0.41551,0.598852 -8.82667,0.598852 -5.51317,0 -8.78663,-0.115573 -8.72,-0.30787 z M 348.97763,61.726077 C 344.58732,52.328735 339.66453,41.796 338.03809,38.32 L 335.08093,32 h 15.9192 15.9192 l -4.88896,22.96 c -2.68892,12.628001 -4.92977,23.160735 -4.97966,23.406077 -0.0499,0.245343 -3.68277,-7.242658 -8.07308,-16.64 z"
       id="path1" />
  </g>
</svg>
